G04*
G04 #@! TF.GenerationSoftware,Altium Limited,Altium Designer,20.2.3 (150)*
G04*
G04 Layer_Color=65535*
%FSLAX25Y25*%
%MOIN*%
G70*
G04*
G04 #@! TF.SameCoordinates,3BBCC810-EA08-4C21-AED5-1319FEB89D9C*
G04*
G04*
G04 #@! TF.FilePolarity,Positive*
G04*
G01*
G75*
%ADD10C,0.00492*%
%ADD11C,0.01000*%
D10*
X500429Y38508D02*
Y65673D01*
X493736Y72366D02*
X500429Y65673D01*
X489799Y72366D02*
X493736D01*
X466571Y38508D02*
Y65673D01*
X489799Y38508D02*
X500429D01*
X466571D02*
X477201D01*
X492555Y75516D02*
Y79453D01*
X490587Y77484D02*
X494524D01*
X473264Y72366D02*
X477201D01*
X466571Y65673D02*
X473264Y72366D01*
X137929Y38508D02*
Y65673D01*
X131236Y72366D02*
X137929Y65673D01*
X127299Y72366D02*
X131236D01*
X104071Y38508D02*
Y65673D01*
X127299Y38508D02*
X137929D01*
X104071D02*
X114701D01*
X130055Y75516D02*
Y79453D01*
X128087Y77484D02*
X132024D01*
X110764Y72366D02*
X114701D01*
X104071Y65673D02*
X110764Y72366D01*
X551134Y31315D02*
Y78559D01*
X592866Y31315D02*
Y78559D01*
X551134D02*
X592866D01*
X551134Y31315D02*
X592866D01*
X9634D02*
X51366D01*
X9634Y78559D02*
X51366D01*
Y31315D02*
Y78559D01*
X9634Y31315D02*
Y78559D01*
X453126Y64886D02*
Y77091D01*
Y33784D02*
Y45988D01*
X405882Y33784D02*
Y45988D01*
Y64886D02*
Y77091D01*
Y33784D02*
X453126D01*
X405882Y77091D02*
X453126D01*
X322425Y63685D02*
Y65654D01*
X349984D01*
Y63685D02*
Y65654D01*
X322425Y42031D02*
Y44000D01*
Y42031D02*
X349984D01*
Y44000D01*
X322425Y51874D02*
Y55811D01*
X349984Y51874D02*
Y55811D01*
X236073Y63685D02*
Y65654D01*
X263632D01*
Y63685D02*
Y65654D01*
X236073Y42031D02*
Y44000D01*
Y42031D02*
X263632D01*
Y44000D01*
X236073Y51874D02*
Y55811D01*
X263632Y51874D02*
Y55811D01*
X149721Y63685D02*
Y65654D01*
X177279D01*
Y63685D02*
Y65654D01*
X149721Y42031D02*
Y44000D01*
Y42031D02*
X177279D01*
Y44000D01*
X149721Y51874D02*
Y55811D01*
X177279Y51874D02*
Y55811D01*
X534138Y49772D02*
X538862D01*
X539847Y50756D02*
Y60598D01*
X534138Y61583D02*
X538862D01*
X533153Y50756D02*
Y60598D01*
X533153Y60598D02*
Y61583D01*
X534138D01*
X533153Y49772D02*
Y50756D01*
Y49772D02*
X534138D01*
X538862D02*
X539846D01*
Y50756D01*
X539847Y60598D02*
Y61583D01*
X538862D02*
X539847D01*
X521138Y49772D02*
X525862D01*
X526847Y50756D02*
Y60598D01*
X521138Y61583D02*
X525862D01*
X520154Y50756D02*
Y60598D01*
X520154Y60598D02*
Y61583D01*
X521138D01*
X520154Y49772D02*
Y50756D01*
Y49772D02*
X521138D01*
X525862D02*
X526847D01*
Y50756D01*
X526847Y60598D02*
Y61583D01*
X525862D02*
X526847D01*
X508138Y49772D02*
X512862D01*
X513846Y50756D02*
Y60598D01*
X508138Y61583D02*
X512862D01*
X507154Y50756D02*
Y60598D01*
X507154Y60598D02*
Y61583D01*
X508138D01*
X507154Y49772D02*
Y50756D01*
Y49772D02*
X508138D01*
X512862D02*
X513846D01*
Y50756D01*
X513846Y60598D02*
Y61583D01*
X512862D02*
X513846D01*
X388138Y49772D02*
X392862D01*
X393847Y50756D02*
Y60598D01*
X388138Y61583D02*
X392862D01*
X387154Y50756D02*
Y60598D01*
X387154Y60598D02*
Y61583D01*
X388138D01*
X387154Y49772D02*
Y50756D01*
Y49772D02*
X388138D01*
X392862D02*
X393846D01*
Y50756D01*
X393847Y60598D02*
Y61583D01*
X392862D02*
X393847D01*
X375138Y49772D02*
X379862D01*
X380847Y50756D02*
Y60598D01*
X375138Y61583D02*
X379862D01*
X374153Y50756D02*
Y60598D01*
X374153Y60598D02*
Y61583D01*
X375138D01*
X374153Y49772D02*
Y50756D01*
Y49772D02*
X375138D01*
X379862D02*
X380846D01*
Y50756D01*
X380847Y60598D02*
Y61583D01*
X379862D02*
X380847D01*
X362138Y49772D02*
X366862D01*
X367846Y50756D02*
Y60598D01*
X362138Y61583D02*
X366862D01*
X361154Y50756D02*
Y60598D01*
X361154Y60598D02*
Y61583D01*
X362138D01*
X361154Y49772D02*
Y50756D01*
Y49772D02*
X362138D01*
X366862D02*
X367846D01*
Y50756D01*
X367846Y60598D02*
Y61583D01*
X366862D02*
X367846D01*
X304138Y49772D02*
X308862D01*
X309846Y50756D02*
Y60598D01*
X304138Y61583D02*
X308862D01*
X303153Y50756D02*
Y60598D01*
X303153Y60598D02*
Y61583D01*
X304138D01*
X303153Y49772D02*
Y50756D01*
Y49772D02*
X304138D01*
X308862D02*
X309846D01*
Y50756D01*
X309846Y60598D02*
Y61583D01*
X308862D02*
X309846D01*
X291138Y49772D02*
X295862D01*
X296847Y50756D02*
Y60598D01*
X291138Y61583D02*
X295862D01*
X290154Y50756D02*
Y60598D01*
X290154Y60598D02*
Y61583D01*
X291138D01*
X290154Y49772D02*
Y50756D01*
Y49772D02*
X291138D01*
X295862D02*
X296847D01*
Y50756D01*
X296847Y60598D02*
Y61583D01*
X295862D02*
X296847D01*
X278138Y49772D02*
X282862D01*
X283846Y50756D02*
Y60598D01*
X278138Y61583D02*
X282862D01*
X277153Y50756D02*
Y60598D01*
X277153Y60598D02*
Y61583D01*
X278138D01*
X277153Y49772D02*
Y50756D01*
Y49772D02*
X278138D01*
X282862D02*
X283846D01*
Y50756D01*
X283846Y60598D02*
Y61583D01*
X282862D02*
X283846D01*
X217138Y49772D02*
X221862D01*
X222847Y50756D02*
Y60598D01*
X217138Y61583D02*
X221862D01*
X216154Y50756D02*
Y60598D01*
X216154Y60598D02*
Y61583D01*
X217138D01*
X216154Y49772D02*
Y50756D01*
Y49772D02*
X217138D01*
X221862D02*
X222846D01*
Y50756D01*
X222847Y60598D02*
Y61583D01*
X221862D02*
X222847D01*
X204138Y49772D02*
X208862D01*
X209846Y50756D02*
Y60598D01*
X204138Y61583D02*
X208862D01*
X203153Y50756D02*
Y60598D01*
X203153Y60598D02*
Y61583D01*
X204138D01*
X203153Y49772D02*
Y50756D01*
Y49772D02*
X204138D01*
X208862D02*
X209846D01*
Y50756D01*
X209846Y60598D02*
Y61583D01*
X208862D02*
X209846D01*
X191138Y49772D02*
X195862D01*
X196846Y50756D02*
Y60598D01*
X191138Y61583D02*
X195862D01*
X190154Y50756D02*
Y60598D01*
X190154Y60598D02*
Y61583D01*
X191138D01*
X190154Y49772D02*
Y50756D01*
Y49772D02*
X191138D01*
X195862D02*
X196846D01*
Y50756D01*
X196846Y60598D02*
Y61583D01*
X195862D02*
X196846D01*
X90138Y49772D02*
X94862D01*
X95846Y50756D02*
Y60598D01*
X90138Y61583D02*
X94862D01*
X89153Y50756D02*
Y60598D01*
X89153Y60598D02*
Y61583D01*
X90138D01*
X89153Y49772D02*
Y50756D01*
Y49772D02*
X90138D01*
X94862D02*
X95846D01*
Y50756D01*
X95846Y60598D02*
Y61583D01*
X94862D02*
X95846D01*
X77138Y49772D02*
X81862D01*
X82846Y50756D02*
Y60598D01*
X77138Y61583D02*
X81862D01*
X76153Y50756D02*
Y60598D01*
X76153Y60598D02*
Y61583D01*
X77138D01*
X76153Y49772D02*
Y50756D01*
Y49772D02*
X77138D01*
X81862D02*
X82846D01*
Y50756D01*
X82846Y60598D02*
Y61583D01*
X81862D02*
X82846D01*
X64138Y49772D02*
X68862D01*
X69846Y50756D02*
Y60598D01*
X64138Y61583D02*
X68862D01*
X63153Y50756D02*
Y60598D01*
X63153Y60598D02*
Y61583D01*
X64138D01*
X63153Y49772D02*
Y50756D01*
Y49772D02*
X64138D01*
X68862D02*
X69846D01*
Y50756D01*
X69846Y60598D02*
Y61583D01*
X68862D02*
X69846D01*
D11*
X582666Y24332D02*
X581999Y24999D01*
X580666D01*
X580000Y24332D01*
Y21666D01*
X580666Y21000D01*
X581999D01*
X582666Y21666D01*
Y22999D01*
X581333D01*
X583999Y21000D02*
Y24999D01*
X586664Y21000D01*
Y24999D01*
X587997D02*
Y21000D01*
X589997D01*
X590663Y21666D01*
Y24332D01*
X589997Y24999D01*
X587997D01*
X12666Y24332D02*
X11999Y24999D01*
X10667D01*
X10000Y24332D01*
Y21666D01*
X10667Y21000D01*
X11999D01*
X12666Y21666D01*
Y22999D01*
X11333D01*
X13999Y21000D02*
Y24999D01*
X16665Y21000D01*
Y24999D01*
X17997D02*
Y21000D01*
X19997D01*
X20663Y21666D01*
Y24332D01*
X19997Y24999D01*
X17997D01*
X404304Y83336D02*
Y80337D01*
X406303D01*
X408803D02*
Y83336D01*
X407303Y81836D01*
X409302D01*
X319110Y71936D02*
Y68937D01*
X321109D01*
X322109Y71436D02*
X322608Y71936D01*
X323608D01*
X324108Y71436D01*
Y70936D01*
X323608Y70437D01*
X323108D01*
X323608D01*
X324108Y69937D01*
Y69437D01*
X323608Y68937D01*
X322608D01*
X322109Y69437D01*
X232752Y71942D02*
Y68942D01*
X234752D01*
X237751D02*
X235751D01*
X237751Y70942D01*
Y71442D01*
X237251Y71942D01*
X236251D01*
X235751Y71442D01*
X146400Y71942D02*
Y68942D01*
X148399D01*
X149399D02*
X150399D01*
X149899D01*
Y71942D01*
X149399Y71442D01*
X570000Y89999D02*
Y86000D01*
X571999D01*
X572666Y86666D01*
Y89332D01*
X571999Y89999D01*
X570000D01*
X576664Y89332D02*
X575998Y89999D01*
X574665D01*
X573999Y89332D01*
Y86666D01*
X574665Y86000D01*
X575998D01*
X576664Y86666D01*
X583995Y89999D02*
X582663D01*
X581996Y89332D01*
Y86666D01*
X582663Y86000D01*
X583995D01*
X584662Y86666D01*
Y89332D01*
X583995Y89999D01*
X585995D02*
Y86666D01*
X586661Y86000D01*
X587994D01*
X588661Y86666D01*
Y89999D01*
X589993D02*
X592659D01*
X591327D01*
Y86000D01*
X10000Y89999D02*
Y86000D01*
X11999D01*
X12666Y86666D01*
Y89332D01*
X11999Y89999D01*
X10000D01*
X16665Y89332D02*
X15998Y89999D01*
X14665D01*
X13999Y89332D01*
Y86666D01*
X14665Y86000D01*
X15998D01*
X16665Y86666D01*
X21996Y89999D02*
X23329D01*
X22663D01*
Y86000D01*
X21996D01*
X23329D01*
X25328D02*
Y89999D01*
X27994Y86000D01*
Y89999D01*
X535499Y67776D02*
X535000Y68276D01*
X534000D01*
X533500Y67776D01*
Y65777D01*
X534000Y65277D01*
X535000D01*
X535499Y65777D01*
X536499Y65277D02*
X537499D01*
X536999D01*
Y68276D01*
X536499Y67776D01*
X538998Y68276D02*
X540998D01*
Y67776D01*
X538998Y65777D01*
Y65277D01*
X522499Y67736D02*
X522000Y68236D01*
X521000D01*
X520500Y67736D01*
Y65737D01*
X521000Y65237D01*
X522000D01*
X522499Y65737D01*
X523499Y65237D02*
X524499D01*
X523999D01*
Y68236D01*
X523499Y67736D01*
X527998Y68236D02*
X526998Y67736D01*
X525998Y66737D01*
Y65737D01*
X526498Y65237D01*
X527498D01*
X527998Y65737D01*
Y66237D01*
X527498Y66737D01*
X525998D01*
X509499Y67776D02*
X508999Y68276D01*
X508000D01*
X507500Y67776D01*
Y65777D01*
X508000Y65277D01*
X508999D01*
X509499Y65777D01*
X510499Y65277D02*
X511499D01*
X510999D01*
Y68276D01*
X510499Y67776D01*
X514998Y68276D02*
X512998D01*
Y66777D01*
X513998Y67277D01*
X514498D01*
X514998Y66777D01*
Y65777D01*
X514498Y65277D01*
X513498D01*
X512998Y65777D01*
X469299Y85236D02*
X468799Y85736D01*
X467800D01*
X467300Y85236D01*
Y83237D01*
X467800Y82737D01*
X468799D01*
X469299Y83237D01*
X470299Y82737D02*
X471299D01*
X470799D01*
Y85736D01*
X470299Y85236D01*
X474298Y82737D02*
Y85736D01*
X472798Y84237D01*
X474798D01*
X389499Y67776D02*
X389000Y68276D01*
X388000D01*
X387500Y67776D01*
Y65777D01*
X388000Y65277D01*
X389000D01*
X389499Y65777D01*
X390499Y65277D02*
X391499D01*
X390999D01*
Y68276D01*
X390499Y67776D01*
X392998D02*
X393498Y68276D01*
X394498D01*
X394998Y67776D01*
Y67277D01*
X394498Y66777D01*
X393998D01*
X394498D01*
X394998Y66277D01*
Y65777D01*
X394498Y65277D01*
X393498D01*
X392998Y65777D01*
X376499Y67776D02*
X375999Y68276D01*
X375000D01*
X374500Y67776D01*
Y65777D01*
X375000Y65277D01*
X375999D01*
X376499Y65777D01*
X377499Y65277D02*
X378499D01*
X377999D01*
Y68276D01*
X377499Y67776D01*
X381998Y65277D02*
X379998D01*
X381998Y67277D01*
Y67776D01*
X381498Y68276D01*
X380498D01*
X379998Y67776D01*
X363499D02*
X363000Y68276D01*
X362000D01*
X361500Y67776D01*
Y65777D01*
X362000Y65277D01*
X363000D01*
X363499Y65777D01*
X364499Y65277D02*
X365499D01*
X364999D01*
Y68276D01*
X364499Y67776D01*
X366998Y65277D02*
X367998D01*
X367498D01*
Y68276D01*
X366998Y67776D01*
X305499Y67736D02*
X304999Y68236D01*
X304000D01*
X303500Y67736D01*
Y65737D01*
X304000Y65237D01*
X304999D01*
X305499Y65737D01*
X306499Y65237D02*
X307499D01*
X306999D01*
Y68236D01*
X306499Y67736D01*
X308998D02*
X309498Y68236D01*
X310498D01*
X310998Y67736D01*
Y65737D01*
X310498Y65237D01*
X309498D01*
X308998Y65737D01*
Y67736D01*
X292499D02*
X292000Y68236D01*
X291000D01*
X290500Y67736D01*
Y65737D01*
X291000Y65237D01*
X292000D01*
X292499Y65737D01*
X293499D02*
X293999Y65237D01*
X294999D01*
X295498Y65737D01*
Y67736D01*
X294999Y68236D01*
X293999D01*
X293499Y67736D01*
Y67236D01*
X293999Y66737D01*
X295498D01*
X279499Y67776D02*
X278999Y68276D01*
X278000D01*
X277500Y67776D01*
Y65777D01*
X278000Y65277D01*
X278999D01*
X279499Y65777D01*
X280499Y67776D02*
X280999Y68276D01*
X281998D01*
X282498Y67776D01*
Y67277D01*
X281998Y66777D01*
X282498Y66277D01*
Y65777D01*
X281998Y65277D01*
X280999D01*
X280499Y65777D01*
Y66277D01*
X280999Y66777D01*
X280499Y67277D01*
Y67776D01*
X280999Y66777D02*
X281998D01*
X218499Y67776D02*
X218000Y68276D01*
X217000D01*
X216500Y67776D01*
Y65777D01*
X217000Y65277D01*
X218000D01*
X218499Y65777D01*
X219499Y68276D02*
X221498D01*
Y67776D01*
X219499Y65777D01*
Y65277D01*
X205499Y67776D02*
X204999Y68276D01*
X204000D01*
X203500Y67776D01*
Y65777D01*
X204000Y65277D01*
X204999D01*
X205499Y65777D01*
X208498Y68276D02*
X207499Y67776D01*
X206499Y66777D01*
Y65777D01*
X206999Y65277D01*
X207998D01*
X208498Y65777D01*
Y66277D01*
X207998Y66777D01*
X206499D01*
X192499Y67736D02*
X191999Y68236D01*
X191000D01*
X190500Y67736D01*
Y65737D01*
X191000Y65237D01*
X191999D01*
X192499Y65737D01*
X195498Y68236D02*
X193499D01*
Y66737D01*
X194499Y67236D01*
X194999D01*
X195498Y66737D01*
Y65737D01*
X194999Y65237D01*
X193999D01*
X193499Y65737D01*
X106799Y85236D02*
X106299Y85736D01*
X105300D01*
X104800Y85236D01*
Y83237D01*
X105300Y82737D01*
X106299D01*
X106799Y83237D01*
X109299Y82737D02*
Y85736D01*
X107799Y84237D01*
X109798D01*
X91499Y67776D02*
X91000Y68276D01*
X90000D01*
X89500Y67776D01*
Y65777D01*
X90000Y65277D01*
X91000D01*
X91499Y65777D01*
X92499Y67776D02*
X92999Y68276D01*
X93999D01*
X94498Y67776D01*
Y67277D01*
X93999Y66777D01*
X93499D01*
X93999D01*
X94498Y66277D01*
Y65777D01*
X93999Y65277D01*
X92999D01*
X92499Y65777D01*
X78499Y67736D02*
X78000Y68236D01*
X77000D01*
X76500Y67736D01*
Y65737D01*
X77000Y65237D01*
X78000D01*
X78499Y65737D01*
X81498Y65237D02*
X79499D01*
X81498Y67236D01*
Y67736D01*
X80999Y68236D01*
X79999D01*
X79499Y67736D01*
X65499D02*
X65000Y68236D01*
X64000D01*
X63500Y67736D01*
Y65737D01*
X64000Y65237D01*
X65000D01*
X65499Y65737D01*
X66499Y65237D02*
X67499D01*
X66999D01*
Y68236D01*
X66499Y67736D01*
M02*
