G04*
G04 #@! TF.GenerationSoftware,Altium Limited,Altium Designer,20.2.3 (150)*
G04*
G04 Layer_Physical_Order=1*
G04 Layer_Color=255*
%FSLAX25Y25*%
%MOIN*%
G70*
G04*
G04 #@! TF.SameCoordinates,3BBCC810-EA08-4C21-AED5-1319FEB89D9C*
G04*
G04*
G04 #@! TF.FilePolarity,Positive*
G04*
G01*
G75*
%ADD12R,0.09843X0.13780*%
%ADD13R,0.14567X0.15748*%
%ADD14R,0.09843X0.05906*%
%ADD15R,0.05118X0.02756*%
%ADD22C,0.11417*%
%ADD23C,0.11811*%
G36*
X159000Y56937D02*
X135500D01*
Y60937D01*
X108000D01*
Y57937D01*
X9500D01*
X9500Y91000D01*
X159000D01*
X159000Y56937D01*
D02*
G37*
G36*
X108000Y49437D02*
X135500D01*
Y51937D01*
X159000D01*
X159000Y16000D01*
X9500D01*
X9500Y51437D01*
X43500D01*
Y53437D01*
X108000D01*
Y49437D01*
D02*
G37*
G36*
X243000Y16000D02*
X171000D01*
X171000Y53437D01*
X243000D01*
X243000Y16000D01*
D02*
G37*
G36*
X243000Y55937D02*
X232000D01*
Y57937D01*
X185000D01*
Y55937D01*
X171000D01*
X171000Y91000D01*
X243000D01*
X243000Y55937D01*
D02*
G37*
G36*
X593000Y58437D02*
X592500Y57937D01*
X503500D01*
Y60937D01*
X458000D01*
Y46937D01*
X440000D01*
Y91000D01*
X593000D01*
Y58437D01*
D02*
G37*
G36*
X329000Y56937D02*
X314000D01*
Y57937D01*
X273000D01*
Y56937D01*
X256000D01*
Y91000D01*
X329000D01*
Y56937D01*
D02*
G37*
G36*
X421000Y45437D02*
X402500D01*
Y57937D01*
X354000D01*
X354000Y56437D01*
X343000D01*
Y91000D01*
X421000D01*
Y45437D01*
D02*
G37*
G36*
X559000Y50937D02*
X593000D01*
X593000Y16000D01*
X342500Y16000D01*
X342500Y50937D01*
X358000D01*
Y53437D01*
X394500D01*
Y29437D01*
X468000D01*
Y53437D01*
X559000D01*
Y50937D01*
D02*
G37*
G36*
X314000Y50937D02*
X329000D01*
Y16000D01*
X256000D01*
Y50937D01*
X273000D01*
Y53437D01*
X314000D01*
Y50937D01*
D02*
G37*
D12*
X483500Y68429D02*
D03*
Y42445D02*
D03*
X121000Y68429D02*
D03*
Y42445D02*
D03*
D13*
X448008Y55437D02*
D03*
X411000D02*
D03*
D14*
X349000Y47937D02*
D03*
Y59748D02*
D03*
X323410D02*
D03*
Y47937D02*
D03*
X262648D02*
D03*
Y59748D02*
D03*
X237057D02*
D03*
Y47937D02*
D03*
X176295D02*
D03*
Y59748D02*
D03*
X150705D02*
D03*
Y47937D02*
D03*
D15*
X536500Y51937D02*
D03*
Y59417D02*
D03*
X523500Y51937D02*
D03*
Y59417D02*
D03*
X510500Y51937D02*
D03*
Y59417D02*
D03*
X390500Y51937D02*
D03*
Y59417D02*
D03*
X377500Y51937D02*
D03*
Y59417D02*
D03*
X364500Y51937D02*
D03*
Y59417D02*
D03*
X306500Y51937D02*
D03*
Y59417D02*
D03*
X293500Y51937D02*
D03*
Y59417D02*
D03*
X280500Y51937D02*
D03*
Y59417D02*
D03*
X219500Y51937D02*
D03*
Y59417D02*
D03*
X206500Y51937D02*
D03*
Y59417D02*
D03*
X193500Y51937D02*
D03*
Y59417D02*
D03*
X92500Y51937D02*
D03*
Y59417D02*
D03*
X79500Y51937D02*
D03*
Y59417D02*
D03*
X66500Y51937D02*
D03*
Y59417D02*
D03*
D22*
X572000Y64937D02*
D03*
Y44937D02*
D03*
X30500D02*
D03*
Y64937D02*
D03*
D23*
X590000Y100000D02*
D03*
Y8000D02*
D03*
X10000D02*
D03*
Y100000D02*
D03*
M02*
