G04*
G04 #@! TF.GenerationSoftware,Altium Limited,Altium Designer,20.2.3 (150)*
G04*
G04 Layer_Color=255*
%FSLAX25Y25*%
%MOIN*%
G70*
G04*
G04 #@! TF.SameCoordinates,3BBCC810-EA08-4C21-AED5-1319FEB89D9C*
G04*
G04*
G04 #@! TF.FilePolarity,Positive*
G04*
G01*
G75*
%ADD12R,0.09843X0.13780*%
%ADD13R,0.14567X0.15748*%
%ADD14R,0.09843X0.05906*%
%ADD15R,0.05118X0.02756*%
%ADD22C,0.11417*%
D12*
X483500Y68429D02*
D03*
Y42445D02*
D03*
X121000Y68429D02*
D03*
Y42445D02*
D03*
D13*
X448008Y55437D02*
D03*
X411000D02*
D03*
D14*
X349000Y47937D02*
D03*
Y59748D02*
D03*
X323410D02*
D03*
Y47937D02*
D03*
X262648D02*
D03*
Y59748D02*
D03*
X237057D02*
D03*
Y47937D02*
D03*
X176295D02*
D03*
Y59748D02*
D03*
X150705D02*
D03*
Y47937D02*
D03*
D15*
X536500Y51937D02*
D03*
Y59417D02*
D03*
X523500Y51937D02*
D03*
Y59417D02*
D03*
X510500Y51937D02*
D03*
Y59417D02*
D03*
X390500Y51937D02*
D03*
Y59417D02*
D03*
X377500Y51937D02*
D03*
Y59417D02*
D03*
X364500Y51937D02*
D03*
Y59417D02*
D03*
X306500Y51937D02*
D03*
Y59417D02*
D03*
X293500Y51937D02*
D03*
Y59417D02*
D03*
X280500Y51937D02*
D03*
Y59417D02*
D03*
X219500Y51937D02*
D03*
Y59417D02*
D03*
X206500Y51937D02*
D03*
Y59417D02*
D03*
X193500Y51937D02*
D03*
Y59417D02*
D03*
X92500Y51937D02*
D03*
Y59417D02*
D03*
X79500Y51937D02*
D03*
Y59417D02*
D03*
X66500Y51937D02*
D03*
Y59417D02*
D03*
D22*
X572000Y64937D02*
D03*
Y44937D02*
D03*
X30500D02*
D03*
Y64937D02*
D03*
M02*
