G04*
G04 #@! TF.GenerationSoftware,Altium Limited,Altium Designer,20.2.3 (150)*
G04*
G04 Layer_Color=8388736*
%FSLAX25Y25*%
%MOIN*%
G70*
G04*
G04 #@! TF.SameCoordinates,3BBCC810-EA08-4C21-AED5-1319FEB89D9C*
G04*
G04*
G04 #@! TF.FilePolarity,Negative*
G04*
G01*
G75*
%ADD16R,0.10642X0.14580*%
%ADD17R,0.15367X0.16548*%
%ADD18R,0.10642X0.06706*%
%ADD19R,0.05918X0.03556*%
%ADD20C,0.12217*%
%ADD21C,0.12611*%
D16*
X483500Y68429D02*
D03*
Y42445D02*
D03*
X121000Y68429D02*
D03*
Y42445D02*
D03*
D17*
X448008Y55437D02*
D03*
X411000D02*
D03*
D18*
X349000Y47937D02*
D03*
Y59748D02*
D03*
X323410D02*
D03*
Y47937D02*
D03*
X262648D02*
D03*
Y59748D02*
D03*
X237057D02*
D03*
Y47937D02*
D03*
X176295D02*
D03*
Y59748D02*
D03*
X150705D02*
D03*
Y47937D02*
D03*
D19*
X536500Y51937D02*
D03*
Y59417D02*
D03*
X523500Y51937D02*
D03*
Y59417D02*
D03*
X510500Y51937D02*
D03*
Y59417D02*
D03*
X390500Y51937D02*
D03*
Y59417D02*
D03*
X377500Y51937D02*
D03*
Y59417D02*
D03*
X364500Y51937D02*
D03*
Y59417D02*
D03*
X306500Y51937D02*
D03*
Y59417D02*
D03*
X293500Y51937D02*
D03*
Y59417D02*
D03*
X280500Y51937D02*
D03*
Y59417D02*
D03*
X219500Y51937D02*
D03*
Y59417D02*
D03*
X206500Y51937D02*
D03*
Y59417D02*
D03*
X193500Y51937D02*
D03*
Y59417D02*
D03*
X92500Y51937D02*
D03*
Y59417D02*
D03*
X79500Y51937D02*
D03*
Y59417D02*
D03*
X66500Y51937D02*
D03*
Y59417D02*
D03*
D20*
X572000Y64937D02*
D03*
Y44937D02*
D03*
X30500D02*
D03*
Y64937D02*
D03*
D21*
X590000Y100000D02*
D03*
Y8000D02*
D03*
X10000D02*
D03*
Y100000D02*
D03*
M02*
